<mxfile host="app.diagrams.net" modified="2024-07-15T14:55:17.778Z" agent="Mozilla/5.0 (Windows NT 10.0; Win64; x64) AppleWebKit/537.36 (KHTML, like Gecko) Chrome/126.0.0.0 Safari/537.36" etag="U7eVzaunAjy3588ogU3g" version="24.6.5" type="github">
  <diagram id="C5RBs43oDa-KdzZeNtuy" name="Page-1">
    <mxGraphModel dx="1434" dy="1889" grid="1" gridSize="10" guides="1" tooltips="1" connect="1" arrows="1" fold="1" page="1" pageScale="1" pageWidth="827" pageHeight="1169" math="0" shadow="0">
      <root>
        <mxCell id="WIyWlLk6GJQsqaUBKTNV-0" />
        <mxCell id="WIyWlLk6GJQsqaUBKTNV-1" parent="WIyWlLk6GJQsqaUBKTNV-0" />
        <mxCell id="t0WHqo22o72TrGjJ95IA-74" style="edgeStyle=orthogonalEdgeStyle;rounded=0;orthogonalLoop=1;jettySize=auto;html=1;entryX=0.5;entryY=0;entryDx=0;entryDy=0;" parent="WIyWlLk6GJQsqaUBKTNV-1" source="t0WHqo22o72TrGjJ95IA-21" target="t0WHqo22o72TrGjJ95IA-47" edge="1">
          <mxGeometry relative="1" as="geometry" />
        </mxCell>
        <mxCell id="t0WHqo22o72TrGjJ95IA-21" value="User" style="swimlane;fontStyle=1;align=center;verticalAlign=top;childLayout=stackLayout;horizontal=1;startSize=26;horizontalStack=0;resizeParent=1;resizeParentMax=0;resizeLast=0;collapsible=1;marginBottom=0;whiteSpace=wrap;html=1;fillColor=#f8cecc;strokeColor=#b85450;fontSize=14;" parent="WIyWlLk6GJQsqaUBKTNV-1" vertex="1">
          <mxGeometry x="280" y="40" width="170" height="160" as="geometry" />
        </mxCell>
        <mxCell id="t0WHqo22o72TrGjJ95IA-22" value="&lt;font style=&quot;font-size: 15px;&quot;&gt;-String userId&lt;/font&gt;&lt;div style=&quot;font-size: 15px;&quot;&gt;&lt;font style=&quot;font-size: 15px;&quot;&gt;-String Password&lt;br&gt;&lt;/font&gt;&lt;div&gt;&lt;br&gt;&lt;/div&gt;&lt;/div&gt;" style="text;strokeColor=none;fillColor=none;align=left;verticalAlign=top;spacingLeft=4;spacingRight=4;overflow=hidden;rotatable=0;points=[[0,0.5],[1,0.5]];portConstraint=eastwest;whiteSpace=wrap;html=1;" parent="t0WHqo22o72TrGjJ95IA-21" vertex="1">
          <mxGeometry y="26" width="170" height="44" as="geometry" />
        </mxCell>
        <mxCell id="t0WHqo22o72TrGjJ95IA-23" value="" style="line;strokeWidth=1;fillColor=none;align=left;verticalAlign=middle;spacingTop=-1;spacingLeft=3;spacingRight=3;rotatable=0;labelPosition=right;points=[];portConstraint=eastwest;strokeColor=inherit;" parent="t0WHqo22o72TrGjJ95IA-21" vertex="1">
          <mxGeometry y="70" width="170" height="8" as="geometry" />
        </mxCell>
        <mxCell id="t0WHqo22o72TrGjJ95IA-24" value="&lt;font style=&quot;font-size: 15px;&quot;&gt;+log in(): Boolean&lt;/font&gt;&lt;div style=&quot;font-size: 15px;&quot;&gt;&lt;font style=&quot;font-size: 15px;&quot;&gt;+log out(): Void&lt;/font&gt;&lt;/div&gt;&lt;div style=&quot;font-size: 15px;&quot;&gt;&lt;font style=&quot;font-size: 15px;&quot;&gt;+Reset password():void&lt;/font&gt;&lt;/div&gt;&lt;div style=&quot;font-size: 15px;&quot;&gt;&lt;br&gt;&lt;/div&gt;" style="text;strokeColor=none;fillColor=none;align=left;verticalAlign=top;spacingLeft=4;spacingRight=4;overflow=hidden;rotatable=0;points=[[0,0.5],[1,0.5]];portConstraint=eastwest;whiteSpace=wrap;html=1;" parent="t0WHqo22o72TrGjJ95IA-21" vertex="1">
          <mxGeometry y="78" width="170" height="82" as="geometry" />
        </mxCell>
        <mxCell id="t0WHqo22o72TrGjJ95IA-29" value="Box Office Manager" style="swimlane;fontStyle=1;childLayout=stackLayout;horizontal=1;startSize=26;fillColor=#f8cecc;horizontalStack=0;resizeParent=1;resizeParentMax=0;resizeLast=0;collapsible=1;marginBottom=0;whiteSpace=wrap;html=1;strokeColor=#b85450;fontSize=14;" parent="WIyWlLk6GJQsqaUBKTNV-1" vertex="1">
          <mxGeometry x="750" y="70" width="271" height="186" as="geometry" />
        </mxCell>
        <mxCell id="t0WHqo22o72TrGjJ95IA-40" value="+ trackTicket(): void&lt;div style=&quot;font-size: 14px;&quot;&gt;+ addComment(): void&lt;br style=&quot;font-size: 14px;&quot;&gt;&lt;/div&gt;&lt;div style=&quot;font-size: 14px;&quot;&gt;+ sendReport(): void&lt;/div&gt;&lt;div style=&quot;font-size: 14px;&quot;&gt;+ manageData(): void&amp;nbsp;&lt;/div&gt;&lt;div style=&quot;font-size: 14px;&quot;&gt; + streamlineProcess():void&lt;/div&gt;&lt;div style=&quot;font-size: 14px;&quot;&gt;+ crossPromote(): void&amp;nbsp;&lt;/div&gt;&lt;div style=&quot;font-size: 14px;&quot;&gt; + engageAudience(): void&lt;/div&gt;&lt;div style=&quot;font-size: 14px;&quot;&gt;+ increaseAccessibility(): void&amp;nbsp;&lt;/div&gt;&lt;div style=&quot;font-size: 14px;&quot;&gt;&amp;nbsp;&amp;nbsp;&lt;br style=&quot;font-size: 14px;&quot;&gt;&lt;/div&gt;" style="text;html=1;align=left;verticalAlign=middle;resizable=0;points=[];autosize=1;strokeColor=none;fillColor=none;fontSize=14;" parent="t0WHqo22o72TrGjJ95IA-29" vertex="1">
          <mxGeometry y="26" width="271" height="160" as="geometry" />
        </mxCell>
        <mxCell id="t0WHqo22o72TrGjJ95IA-41" value="Customer" style="swimlane;fontStyle=1;childLayout=stackLayout;horizontal=1;startSize=26;fillColor=#f8cecc;horizontalStack=0;resizeParent=1;resizeParentMax=0;resizeLast=0;collapsible=1;marginBottom=0;whiteSpace=wrap;html=1;strokeColor=#b85450;fontSize=14;" parent="WIyWlLk6GJQsqaUBKTNV-1" vertex="1">
          <mxGeometry x="1330" y="86" width="230" height="170" as="geometry" />
        </mxCell>
        <mxCell id="t0WHqo22o72TrGjJ95IA-43" value="+ purchaseTicket():void&lt;div style=&quot;font-size: 14px;&quot;&gt;+ browseShows(): void&amp;nbsp;&lt;/div&gt;&lt;div style=&quot;font-size: 14px;&quot;&gt;+ accessShowInfo():&amp;nbsp;void&lt;/div&gt;&lt;div style=&quot;font-size: 14px;&quot;&gt;+ joinMembership():void&lt;br style=&quot;font-size: 14px;&quot;&gt;&lt;/div&gt;&lt;div style=&quot;font-size: 14px;&quot;&gt;+ getRecommendations():void&lt;br style=&quot;font-size: 14px;&quot;&gt;&lt;/div&gt;&lt;div style=&quot;font-size: 14px;&quot;&gt;+ vote(): void&lt;/div&gt;&lt;div style=&quot;font-size: 14px;&quot;&gt; + participateWorkshop():void&lt;/div&gt;&lt;div style=&quot;font-size: 14px;&quot;&gt;+ reportIssue(): void&amp;nbsp;&lt;br style=&quot;font-size: 14px;&quot;&gt;&lt;/div&gt;" style="text;strokeColor=none;fillColor=none;align=left;verticalAlign=top;spacingLeft=4;spacingRight=4;overflow=hidden;rotatable=0;points=[[0,0.5],[1,0.5]];portConstraint=eastwest;whiteSpace=wrap;html=1;fontSize=14;" parent="t0WHqo22o72TrGjJ95IA-41" vertex="1">
          <mxGeometry y="26" width="230" height="144" as="geometry" />
        </mxCell>
        <mxCell id="t0WHqo22o72TrGjJ95IA-47" value="Dashboard" style="swimlane;fontStyle=1;childLayout=stackLayout;horizontal=1;startSize=30;fillColor=#f8cecc;horizontalStack=0;resizeParent=1;resizeParentMax=0;resizeLast=0;collapsible=1;marginBottom=0;whiteSpace=wrap;html=1;strokeColor=#b85450;fontSize=14;" parent="WIyWlLk6GJQsqaUBKTNV-1" vertex="1">
          <mxGeometry x="80" y="160" width="140" height="84" as="geometry" />
        </mxCell>
        <mxCell id="t0WHqo22o72TrGjJ95IA-49" value="+ display(): void&lt;div style=&quot;font-size: 14px;&quot;&gt;+ loadPage(String)&amp;nbsp;&lt;br style=&quot;font-size: 14px;&quot;&gt;&lt;/div&gt;" style="text;strokeColor=none;fillColor=none;align=left;verticalAlign=top;spacingLeft=4;spacingRight=4;overflow=hidden;rotatable=0;points=[[0,0.5],[1,0.5]];portConstraint=eastwest;whiteSpace=wrap;html=1;fontSize=14;" parent="t0WHqo22o72TrGjJ95IA-47" vertex="1">
          <mxGeometry y="30" width="140" height="54" as="geometry" />
        </mxCell>
        <mxCell id="t0WHqo22o72TrGjJ95IA-51" value="Ticket" style="swimlane;fontStyle=1;align=center;verticalAlign=top;childLayout=stackLayout;horizontal=1;startSize=26;horizontalStack=0;resizeParent=1;resizeParentMax=0;resizeLast=0;collapsible=1;marginBottom=0;whiteSpace=wrap;html=1;fillColor=#f8cecc;strokeColor=#b85450;fontSize=14;" parent="WIyWlLk6GJQsqaUBKTNV-1" vertex="1">
          <mxGeometry x="40" y="500" width="160" height="170" as="geometry" />
        </mxCell>
        <mxCell id="t0WHqo22o72TrGjJ95IA-52" value="- ticketID: String&lt;div style=&quot;font-size: 14px;&quot;&gt;- showName: String&lt;/div&gt;&lt;div style=&quot;font-size: 14px;&quot;&gt;- seatNumber: String&lt;/div&gt;&lt;div style=&quot;font-size: 14px;&quot;&gt;- price: Double &amp;nbsp;&lt;br style=&quot;font-size: 14px;&quot;&gt;&lt;/div&gt;" style="text;strokeColor=none;fillColor=none;align=left;verticalAlign=top;spacingLeft=4;spacingRight=4;overflow=hidden;rotatable=0;points=[[0,0.5],[1,0.5]];portConstraint=eastwest;whiteSpace=wrap;html=1;fontSize=14;" parent="t0WHqo22o72TrGjJ95IA-51" vertex="1">
          <mxGeometry y="26" width="160" height="84" as="geometry" />
        </mxCell>
        <mxCell id="t0WHqo22o72TrGjJ95IA-53" value="" style="line;strokeWidth=1;fillColor=none;align=left;verticalAlign=middle;spacingTop=-1;spacingLeft=3;spacingRight=3;rotatable=0;labelPosition=right;points=[];portConstraint=eastwest;strokeColor=inherit;" parent="t0WHqo22o72TrGjJ95IA-51" vertex="1">
          <mxGeometry y="110" width="160" height="8" as="geometry" />
        </mxCell>
        <mxCell id="t0WHqo22o72TrGjJ95IA-54" value="+ purchase(): void&lt;div style=&quot;font-size: 14px;&quot;&gt;+ viewInfo(): void&amp;nbsp;&lt;br style=&quot;font-size: 14px;&quot;&gt;&lt;/div&gt;" style="text;strokeColor=none;fillColor=none;align=left;verticalAlign=top;spacingLeft=4;spacingRight=4;overflow=hidden;rotatable=0;points=[[0,0.5],[1,0.5]];portConstraint=eastwest;whiteSpace=wrap;html=1;fontSize=14;" parent="t0WHqo22o72TrGjJ95IA-51" vertex="1">
          <mxGeometry y="118" width="160" height="52" as="geometry" />
        </mxCell>
        <mxCell id="t0WHqo22o72TrGjJ95IA-55" value="Show" style="swimlane;fontStyle=1;align=center;verticalAlign=top;childLayout=stackLayout;horizontal=1;startSize=26;horizontalStack=0;resizeParent=1;resizeParentMax=0;resizeLast=0;collapsible=1;marginBottom=0;whiteSpace=wrap;html=1;fillColor=#f8cecc;strokeColor=#b85450;fontSize=14;" parent="WIyWlLk6GJQsqaUBKTNV-1" vertex="1">
          <mxGeometry x="60" y="860" width="160" height="160" as="geometry" />
        </mxCell>
        <mxCell id="t0WHqo22o72TrGjJ95IA-56" value="- showID: String&lt;div style=&quot;font-size: 14px;&quot;&gt;- name: String&lt;br style=&quot;font-size: 14px;&quot;&gt;&lt;/div&gt;&lt;div style=&quot;font-size: 14px;&quot;&gt;- description: String&lt;br style=&quot;font-size: 14px;&quot;&gt;&lt;/div&gt;&lt;div style=&quot;font-size: 14px;&quot;&gt;- schedule: String&amp;nbsp;&amp;nbsp;&lt;br style=&quot;font-size: 14px;&quot;&gt;&lt;/div&gt;" style="text;strokeColor=none;fillColor=none;align=left;verticalAlign=top;spacingLeft=4;spacingRight=4;overflow=hidden;rotatable=0;points=[[0,0.5],[1,0.5]];portConstraint=eastwest;whiteSpace=wrap;html=1;fontSize=14;" parent="t0WHqo22o72TrGjJ95IA-55" vertex="1">
          <mxGeometry y="26" width="160" height="84" as="geometry" />
        </mxCell>
        <mxCell id="t0WHqo22o72TrGjJ95IA-57" value="" style="line;strokeWidth=1;fillColor=none;align=left;verticalAlign=middle;spacingTop=-1;spacingLeft=3;spacingRight=3;rotatable=0;labelPosition=right;points=[];portConstraint=eastwest;strokeColor=inherit;" parent="t0WHqo22o72TrGjJ95IA-55" vertex="1">
          <mxGeometry y="110" width="160" height="8" as="geometry" />
        </mxCell>
        <mxCell id="t0WHqo22o72TrGjJ95IA-58" value="+ getShowInfo(): String" style="text;strokeColor=none;fillColor=none;align=left;verticalAlign=top;spacingLeft=4;spacingRight=4;overflow=hidden;rotatable=0;points=[[0,0.5],[1,0.5]];portConstraint=eastwest;whiteSpace=wrap;html=1;fontSize=14;" parent="t0WHqo22o72TrGjJ95IA-55" vertex="1">
          <mxGeometry y="118" width="160" height="42" as="geometry" />
        </mxCell>
        <mxCell id="t0WHqo22o72TrGjJ95IA-59" value="Membership" style="swimlane;fontStyle=1;align=center;verticalAlign=top;childLayout=stackLayout;horizontal=1;startSize=26;horizontalStack=0;resizeParent=1;resizeParentMax=0;resizeLast=0;collapsible=1;marginBottom=0;whiteSpace=wrap;html=1;fillColor=#f8cecc;strokeColor=#b85450;fontSize=14;" parent="WIyWlLk6GJQsqaUBKTNV-1" vertex="1">
          <mxGeometry x="580" y="420" width="160" height="124" as="geometry" />
        </mxCell>
        <mxCell id="t0WHqo22o72TrGjJ95IA-60" value="- membershipID: String&lt;div style=&quot;font-size: 14px;&quot;&gt;- type: String&lt;/div&gt;&lt;div style=&quot;font-size: 14px;&quot;&gt;- benefits: String&amp;nbsp;&lt;br style=&quot;font-size: 14px;&quot;&gt;&lt;/div&gt;" style="text;strokeColor=none;fillColor=none;align=left;verticalAlign=top;spacingLeft=4;spacingRight=4;overflow=hidden;rotatable=0;points=[[0,0.5],[1,0.5]];portConstraint=eastwest;whiteSpace=wrap;html=1;fontSize=14;" parent="t0WHqo22o72TrGjJ95IA-59" vertex="1">
          <mxGeometry y="26" width="160" height="64" as="geometry" />
        </mxCell>
        <mxCell id="t0WHqo22o72TrGjJ95IA-61" value="" style="line;strokeWidth=1;fillColor=none;align=left;verticalAlign=middle;spacingTop=-1;spacingLeft=3;spacingRight=3;rotatable=0;labelPosition=right;points=[];portConstraint=eastwest;strokeColor=inherit;" parent="t0WHqo22o72TrGjJ95IA-59" vertex="1">
          <mxGeometry y="90" width="160" height="8" as="geometry" />
        </mxCell>
        <mxCell id="t0WHqo22o72TrGjJ95IA-62" value="+ join(): void" style="text;strokeColor=none;fillColor=none;align=left;verticalAlign=top;spacingLeft=4;spacingRight=4;overflow=hidden;rotatable=0;points=[[0,0.5],[1,0.5]];portConstraint=eastwest;whiteSpace=wrap;html=1;fontSize=14;" parent="t0WHqo22o72TrGjJ95IA-59" vertex="1">
          <mxGeometry y="98" width="160" height="26" as="geometry" />
        </mxCell>
        <mxCell id="t0WHqo22o72TrGjJ95IA-63" value="Recommendation" style="swimlane;fontStyle=1;align=center;verticalAlign=top;childLayout=stackLayout;horizontal=1;startSize=26;horizontalStack=0;resizeParent=1;resizeParentMax=0;resizeLast=0;collapsible=1;marginBottom=0;whiteSpace=wrap;html=1;fillColor=#f8cecc;strokeColor=#b85450;fontSize=14;" parent="WIyWlLk6GJQsqaUBKTNV-1" vertex="1">
          <mxGeometry x="1021" y="740" width="160" height="160" as="geometry" />
        </mxCell>
        <mxCell id="t0WHqo22o72TrGjJ95IA-64" value="- recommendationID:string&lt;div style=&quot;font-size: 14px;&quot;&gt;&amp;nbsp;- showName: String&lt;/div&gt;&lt;div style=&quot;font-size: 14px;&quot;&gt;- reason: String &amp;nbsp;&lt;br style=&quot;font-size: 14px;&quot;&gt;&lt;/div&gt;" style="text;strokeColor=none;fillColor=none;align=left;verticalAlign=top;spacingLeft=4;spacingRight=4;overflow=hidden;rotatable=0;points=[[0,0.5],[1,0.5]];portConstraint=eastwest;whiteSpace=wrap;html=1;fontSize=14;" parent="t0WHqo22o72TrGjJ95IA-63" vertex="1">
          <mxGeometry y="26" width="160" height="84" as="geometry" />
        </mxCell>
        <mxCell id="t0WHqo22o72TrGjJ95IA-65" value="" style="line;strokeWidth=1;fillColor=none;align=left;verticalAlign=middle;spacingTop=-1;spacingLeft=3;spacingRight=3;rotatable=0;labelPosition=right;points=[];portConstraint=eastwest;strokeColor=inherit;" parent="t0WHqo22o72TrGjJ95IA-63" vertex="1">
          <mxGeometry y="110" width="160" height="8" as="geometry" />
        </mxCell>
        <mxCell id="t0WHqo22o72TrGjJ95IA-66" value="+getRecommendation()" style="text;strokeColor=none;fillColor=none;align=left;verticalAlign=top;spacingLeft=4;spacingRight=4;overflow=hidden;rotatable=0;points=[[0,0.5],[1,0.5]];portConstraint=eastwest;whiteSpace=wrap;html=1;fontSize=14;" parent="t0WHqo22o72TrGjJ95IA-63" vertex="1">
          <mxGeometry y="118" width="160" height="42" as="geometry" />
        </mxCell>
        <mxCell id="t0WHqo22o72TrGjJ95IA-67" value="Feedback" style="swimlane;fontStyle=1;align=center;verticalAlign=top;childLayout=stackLayout;horizontal=1;startSize=26;horizontalStack=0;resizeParent=1;resizeParentMax=0;resizeLast=0;collapsible=1;marginBottom=0;whiteSpace=wrap;html=1;fillColor=#f8cecc;strokeColor=#b85450;fontSize=14;" parent="WIyWlLk6GJQsqaUBKTNV-1" vertex="1">
          <mxGeometry x="320" y="820" width="160" height="134" as="geometry" />
        </mxCell>
        <mxCell id="t0WHqo22o72TrGjJ95IA-68" value="- feedbackID: String&lt;div style=&quot;font-size: 14px;&quot;&gt;- message: String&lt;/div&gt;&lt;div style=&quot;font-size: 14px;&quot;&gt;- customerID: String&amp;nbsp;&lt;br style=&quot;font-size: 14px;&quot;&gt;&lt;/div&gt;" style="text;strokeColor=none;fillColor=none;align=left;verticalAlign=top;spacingLeft=4;spacingRight=4;overflow=hidden;rotatable=0;points=[[0,0.5],[1,0.5]];portConstraint=eastwest;whiteSpace=wrap;html=1;fontSize=14;" parent="t0WHqo22o72TrGjJ95IA-67" vertex="1">
          <mxGeometry y="26" width="160" height="74" as="geometry" />
        </mxCell>
        <mxCell id="t0WHqo22o72TrGjJ95IA-69" value="" style="line;strokeWidth=1;fillColor=none;align=left;verticalAlign=middle;spacingTop=-1;spacingLeft=3;spacingRight=3;rotatable=0;labelPosition=right;points=[];portConstraint=eastwest;strokeColor=inherit;" parent="t0WHqo22o72TrGjJ95IA-67" vertex="1">
          <mxGeometry y="100" width="160" height="8" as="geometry" />
        </mxCell>
        <mxCell id="t0WHqo22o72TrGjJ95IA-70" value="+ submitFeedback(): void" style="text;strokeColor=none;fillColor=none;align=left;verticalAlign=top;spacingLeft=4;spacingRight=4;overflow=hidden;rotatable=0;points=[[0,0.5],[1,0.5]];portConstraint=eastwest;whiteSpace=wrap;html=1;fontSize=14;" parent="t0WHqo22o72TrGjJ95IA-67" vertex="1">
          <mxGeometry y="108" width="160" height="26" as="geometry" />
        </mxCell>
        <mxCell id="t0WHqo22o72TrGjJ95IA-75" style="edgeStyle=orthogonalEdgeStyle;rounded=0;orthogonalLoop=1;jettySize=auto;html=1;" parent="WIyWlLk6GJQsqaUBKTNV-1" source="t0WHqo22o72TrGjJ95IA-49" target="t0WHqo22o72TrGjJ95IA-51" edge="1">
          <mxGeometry relative="1" as="geometry" />
        </mxCell>
        <mxCell id="t0WHqo22o72TrGjJ95IA-76" style="edgeStyle=orthogonalEdgeStyle;rounded=0;orthogonalLoop=1;jettySize=auto;html=1;" parent="WIyWlLk6GJQsqaUBKTNV-1" source="t0WHqo22o72TrGjJ95IA-49" target="t0WHqo22o72TrGjJ95IA-59" edge="1">
          <mxGeometry relative="1" as="geometry" />
        </mxCell>
        <mxCell id="t0WHqo22o72TrGjJ95IA-77" style="edgeStyle=orthogonalEdgeStyle;rounded=0;orthogonalLoop=1;jettySize=auto;html=1;entryX=1;entryY=0.964;entryDx=0;entryDy=0;entryPerimeter=0;" parent="WIyWlLk6GJQsqaUBKTNV-1" source="t0WHqo22o72TrGjJ95IA-49" target="t0WHqo22o72TrGjJ95IA-56" edge="1">
          <mxGeometry relative="1" as="geometry">
            <Array as="points">
              <mxPoint x="40" y="217" />
              <mxPoint x="40" y="460" />
              <mxPoint x="240" y="460" />
              <mxPoint x="240" y="837" />
            </Array>
          </mxGeometry>
        </mxCell>
        <mxCell id="t0WHqo22o72TrGjJ95IA-78" style="edgeStyle=orthogonalEdgeStyle;rounded=0;orthogonalLoop=1;jettySize=auto;html=1;" parent="WIyWlLk6GJQsqaUBKTNV-1" source="t0WHqo22o72TrGjJ95IA-49" target="t0WHqo22o72TrGjJ95IA-67" edge="1">
          <mxGeometry relative="1" as="geometry">
            <Array as="points">
              <mxPoint x="310" y="333" />
              <mxPoint x="310" y="583" />
              <mxPoint x="490" y="583" />
              <mxPoint x="490" y="680" />
              <mxPoint x="310" y="680" />
            </Array>
          </mxGeometry>
        </mxCell>
        <mxCell id="t0WHqo22o72TrGjJ95IA-79" style="edgeStyle=orthogonalEdgeStyle;rounded=0;orthogonalLoop=1;jettySize=auto;html=1;" parent="WIyWlLk6GJQsqaUBKTNV-1" source="t0WHqo22o72TrGjJ95IA-49" target="t0WHqo22o72TrGjJ95IA-63" edge="1">
          <mxGeometry relative="1" as="geometry">
            <Array as="points">
              <mxPoint x="530" y="217" />
              <mxPoint x="530" y="834" />
            </Array>
          </mxGeometry>
        </mxCell>
        <mxCell id="t0WHqo22o72TrGjJ95IA-80" style="edgeStyle=orthogonalEdgeStyle;rounded=0;orthogonalLoop=1;jettySize=auto;html=1;entryX=1;entryY=-0.024;entryDx=0;entryDy=0;entryPerimeter=0;" parent="WIyWlLk6GJQsqaUBKTNV-1" source="t0WHqo22o72TrGjJ95IA-43" target="t0WHqo22o72TrGjJ95IA-64" edge="1">
          <mxGeometry relative="1" as="geometry" />
        </mxCell>
        <mxCell id="t0WHqo22o72TrGjJ95IA-81" style="edgeStyle=orthogonalEdgeStyle;rounded=0;orthogonalLoop=1;jettySize=auto;html=1;entryX=1.031;entryY=-0.031;entryDx=0;entryDy=0;entryPerimeter=0;" parent="WIyWlLk6GJQsqaUBKTNV-1" source="t0WHqo22o72TrGjJ95IA-43" target="t0WHqo22o72TrGjJ95IA-60" edge="1">
          <mxGeometry relative="1" as="geometry" />
        </mxCell>
        <mxCell id="t0WHqo22o72TrGjJ95IA-83" style="edgeStyle=orthogonalEdgeStyle;rounded=0;orthogonalLoop=1;jettySize=auto;html=1;entryX=0.927;entryY=-0.016;entryDx=0;entryDy=0;entryPerimeter=0;" parent="WIyWlLk6GJQsqaUBKTNV-1" source="t0WHqo22o72TrGjJ95IA-43" target="t0WHqo22o72TrGjJ95IA-55" edge="1">
          <mxGeometry relative="1" as="geometry">
            <Array as="points">
              <mxPoint x="208" y="380" />
            </Array>
          </mxGeometry>
        </mxCell>
        <mxCell id="t0WHqo22o72TrGjJ95IA-84" style="edgeStyle=orthogonalEdgeStyle;rounded=0;orthogonalLoop=1;jettySize=auto;html=1;entryX=1.02;entryY=0.24;entryDx=0;entryDy=0;entryPerimeter=0;" parent="WIyWlLk6GJQsqaUBKTNV-1" source="t0WHqo22o72TrGjJ95IA-41" target="t0WHqo22o72TrGjJ95IA-68" edge="1">
          <mxGeometry relative="1" as="geometry">
            <Array as="points">
              <mxPoint x="755" y="940" />
              <mxPoint x="490" y="940" />
              <mxPoint x="490" y="824" />
            </Array>
          </mxGeometry>
        </mxCell>
        <mxCell id="t0WHqo22o72TrGjJ95IA-85" style="edgeStyle=orthogonalEdgeStyle;rounded=0;orthogonalLoop=1;jettySize=auto;html=1;entryX=0.005;entryY=0.851;entryDx=0;entryDy=0;entryPerimeter=0;" parent="WIyWlLk6GJQsqaUBKTNV-1" source="t0WHqo22o72TrGjJ95IA-41" target="t0WHqo22o72TrGjJ95IA-56" edge="1">
          <mxGeometry relative="1" as="geometry">
            <Array as="points">
              <mxPoint x="755" y="710" />
              <mxPoint x="40" y="710" />
              <mxPoint x="40" y="828" />
            </Array>
          </mxGeometry>
        </mxCell>
        <mxCell id="t0WHqo22o72TrGjJ95IA-86" style="edgeStyle=orthogonalEdgeStyle;rounded=0;orthogonalLoop=1;jettySize=auto;html=1;" parent="WIyWlLk6GJQsqaUBKTNV-1" source="t0WHqo22o72TrGjJ95IA-40" target="t0WHqo22o72TrGjJ95IA-63" edge="1">
          <mxGeometry relative="1" as="geometry" />
        </mxCell>
        <mxCell id="t0WHqo22o72TrGjJ95IA-87" value="" style="endArrow=block;startArrow=block;endFill=1;startFill=1;html=1;rounded=0;exitX=0.009;exitY=0.41;exitDx=0;exitDy=0;exitPerimeter=0;" parent="WIyWlLk6GJQsqaUBKTNV-1" source="t0WHqo22o72TrGjJ95IA-43" edge="1">
          <mxGeometry width="160" relative="1" as="geometry">
            <mxPoint x="1192.333333333333" y="310" as="sourcePoint" />
            <mxPoint x="1021" y="170" as="targetPoint" />
            <Array as="points">
              <mxPoint x="1071" y="170" />
            </Array>
          </mxGeometry>
        </mxCell>
        <mxCell id="t0WHqo22o72TrGjJ95IA-88" style="edgeStyle=orthogonalEdgeStyle;rounded=0;orthogonalLoop=1;jettySize=auto;html=1;" parent="WIyWlLk6GJQsqaUBKTNV-1" source="t0WHqo22o72TrGjJ95IA-40" target="t0WHqo22o72TrGjJ95IA-59" edge="1">
          <mxGeometry relative="1" as="geometry">
            <Array as="points">
              <mxPoint x="680" y="176" />
            </Array>
          </mxGeometry>
        </mxCell>
        <mxCell id="t0WHqo22o72TrGjJ95IA-89" style="edgeStyle=orthogonalEdgeStyle;rounded=0;orthogonalLoop=1;jettySize=auto;html=1;" parent="WIyWlLk6GJQsqaUBKTNV-1" source="t0WHqo22o72TrGjJ95IA-40" target="t0WHqo22o72TrGjJ95IA-67" edge="1">
          <mxGeometry relative="1" as="geometry">
            <Array as="points">
              <mxPoint x="886" y="280" />
              <mxPoint x="400" y="280" />
            </Array>
          </mxGeometry>
        </mxCell>
        <mxCell id="t0WHqo22o72TrGjJ95IA-90" style="edgeStyle=orthogonalEdgeStyle;rounded=0;orthogonalLoop=1;jettySize=auto;html=1;entryX=1;entryY=0.5;entryDx=0;entryDy=0;" parent="WIyWlLk6GJQsqaUBKTNV-1" source="t0WHqo22o72TrGjJ95IA-40" target="t0WHqo22o72TrGjJ95IA-58" edge="1">
          <mxGeometry relative="1" as="geometry">
            <Array as="points">
              <mxPoint x="820" y="999" />
            </Array>
          </mxGeometry>
        </mxCell>
        <mxCell id="t0WHqo22o72TrGjJ95IA-94" style="edgeStyle=orthogonalEdgeStyle;rounded=0;orthogonalLoop=1;jettySize=auto;html=1;entryX=0;entryY=0;entryDx=0;entryDy=0;exitX=0.5;exitY=0;exitDx=0;exitDy=0;" parent="WIyWlLk6GJQsqaUBKTNV-1" source="t0WHqo22o72TrGjJ95IA-29" target="t0WHqo22o72TrGjJ95IA-51" edge="1">
          <mxGeometry relative="1" as="geometry">
            <Array as="points">
              <mxPoint x="886" y="-60" />
              <mxPoint x="40" y="-60" />
            </Array>
          </mxGeometry>
        </mxCell>
        <mxCell id="E4FGpnUHL6GA9RF_lewc-0" value="Theatre Company" style="swimlane;fontStyle=0;childLayout=stackLayout;horizontal=1;startSize=26;fillColor=#f8cecc;horizontalStack=0;resizeParent=1;resizeParentMax=0;resizeLast=0;collapsible=1;marginBottom=0;whiteSpace=wrap;html=1;fontSize=17;strokeColor=#b85450;" parent="WIyWlLk6GJQsqaUBKTNV-1" vertex="1">
          <mxGeometry x="710" y="-480" width="350" height="130" as="geometry" />
        </mxCell>
        <mxCell id="E4FGpnUHL6GA9RF_lewc-2" value="&lt;font style=&quot;font-size: 14px;&quot;&gt;&amp;nbsp;+ produceShows(): void&lt;/font&gt;&lt;div style=&quot;font-size: 14px;&quot;&gt;&lt;font style=&quot;font-size: 14px;&quot;&gt;+ manageVenue(): void&lt;/font&gt;&lt;/div&gt;&lt;div style=&quot;font-size: 14px;&quot;&gt;&lt;font style=&quot;font-size: 14px;&quot;&gt;+ setPolicies(): void&amp;nbsp;&lt;/font&gt;&lt;/div&gt;&lt;div style=&quot;font-size: 14px;&quot;&gt;&lt;font style=&quot;font-size: 14px;&quot;&gt;+ engageCustomers(): void&lt;br&gt;&lt;/font&gt;&lt;/div&gt;&lt;div style=&quot;font-size: 14px;&quot;&gt;&lt;font style=&quot;font-size: 14px;&quot;&gt;&amp;nbsp;+ manageBoxOffice(): void&lt;br&gt;&lt;/font&gt;&lt;/div&gt;" style="text;strokeColor=none;fillColor=none;align=left;verticalAlign=top;spacingLeft=4;spacingRight=4;overflow=hidden;rotatable=0;points=[[0,0.5],[1,0.5]];portConstraint=eastwest;whiteSpace=wrap;html=1;" parent="E4FGpnUHL6GA9RF_lewc-0" vertex="1">
          <mxGeometry y="26" width="350" height="104" as="geometry" />
        </mxCell>
        <mxCell id="E4FGpnUHL6GA9RF_lewc-7" style="edgeStyle=orthogonalEdgeStyle;rounded=0;orthogonalLoop=1;jettySize=auto;html=1;entryX=1.009;entryY=-0.058;entryDx=0;entryDy=0;entryPerimeter=0;" parent="WIyWlLk6GJQsqaUBKTNV-1" source="t0WHqo22o72TrGjJ95IA-40" target="E4FGpnUHL6GA9RF_lewc-2" edge="1">
          <mxGeometry relative="1" as="geometry" />
        </mxCell>
        <mxCell id="E4FGpnUHL6GA9RF_lewc-8" value="Employee/manages" style="text;html=1;align=center;verticalAlign=middle;resizable=0;points=[];autosize=1;strokeColor=none;fillColor=none;fontSize=14;" parent="WIyWlLk6GJQsqaUBKTNV-1" vertex="1">
          <mxGeometry x="895" y="-252" width="150" height="30" as="geometry" />
        </mxCell>
        <mxCell id="qz77AySCsfV83CSpT286-0" style="edgeStyle=orthogonalEdgeStyle;rounded=0;orthogonalLoop=1;jettySize=auto;html=1;entryX=0.5;entryY=0;entryDx=0;entryDy=0;" edge="1" parent="WIyWlLk6GJQsqaUBKTNV-1" source="qz77AySCsfV83CSpT286-1" target="qz77AySCsfV83CSpT286-9">
          <mxGeometry relative="1" as="geometry" />
        </mxCell>
        <mxCell id="qz77AySCsfV83CSpT286-1" value="User" style="swimlane;fontStyle=1;align=center;verticalAlign=top;childLayout=stackLayout;horizontal=1;startSize=26;horizontalStack=0;resizeParent=1;resizeParentMax=0;resizeLast=0;collapsible=1;marginBottom=0;whiteSpace=wrap;html=1;fillColor=#f8cecc;strokeColor=#b85450;fontSize=14;" vertex="1" parent="WIyWlLk6GJQsqaUBKTNV-1">
          <mxGeometry x="310" y="1160" width="170" height="160" as="geometry" />
        </mxCell>
        <mxCell id="qz77AySCsfV83CSpT286-2" value="&lt;font style=&quot;font-size: 15px;&quot;&gt;-String userId&lt;/font&gt;&lt;div style=&quot;font-size: 15px;&quot;&gt;&lt;font style=&quot;font-size: 15px;&quot;&gt;-String Password&lt;br&gt;&lt;/font&gt;&lt;div&gt;&lt;br&gt;&lt;/div&gt;&lt;/div&gt;" style="text;strokeColor=none;fillColor=none;align=left;verticalAlign=top;spacingLeft=4;spacingRight=4;overflow=hidden;rotatable=0;points=[[0,0.5],[1,0.5]];portConstraint=eastwest;whiteSpace=wrap;html=1;" vertex="1" parent="qz77AySCsfV83CSpT286-1">
          <mxGeometry y="26" width="170" height="44" as="geometry" />
        </mxCell>
        <mxCell id="qz77AySCsfV83CSpT286-3" value="" style="line;strokeWidth=1;fillColor=none;align=left;verticalAlign=middle;spacingTop=-1;spacingLeft=3;spacingRight=3;rotatable=0;labelPosition=right;points=[];portConstraint=eastwest;strokeColor=inherit;" vertex="1" parent="qz77AySCsfV83CSpT286-1">
          <mxGeometry y="70" width="170" height="8" as="geometry" />
        </mxCell>
        <mxCell id="qz77AySCsfV83CSpT286-4" value="&lt;font style=&quot;font-size: 15px;&quot;&gt;+log in(): Boolean&lt;/font&gt;&lt;div style=&quot;font-size: 15px;&quot;&gt;&lt;font style=&quot;font-size: 15px;&quot;&gt;+log out(): Void&lt;/font&gt;&lt;/div&gt;&lt;div style=&quot;font-size: 15px;&quot;&gt;&lt;font style=&quot;font-size: 15px;&quot;&gt;+Reset password():void&lt;/font&gt;&lt;/div&gt;&lt;div style=&quot;font-size: 15px;&quot;&gt;&lt;br&gt;&lt;/div&gt;" style="text;strokeColor=none;fillColor=none;align=left;verticalAlign=top;spacingLeft=4;spacingRight=4;overflow=hidden;rotatable=0;points=[[0,0.5],[1,0.5]];portConstraint=eastwest;whiteSpace=wrap;html=1;" vertex="1" parent="qz77AySCsfV83CSpT286-1">
          <mxGeometry y="78" width="170" height="82" as="geometry" />
        </mxCell>
        <mxCell id="qz77AySCsfV83CSpT286-5" value="Box Office Manager" style="swimlane;fontStyle=1;childLayout=stackLayout;horizontal=1;startSize=26;fillColor=#f8cecc;horizontalStack=0;resizeParent=1;resizeParentMax=0;resizeLast=0;collapsible=1;marginBottom=0;whiteSpace=wrap;html=1;strokeColor=#b85450;fontSize=14;" vertex="1" parent="WIyWlLk6GJQsqaUBKTNV-1">
          <mxGeometry x="780" y="1190" width="271" height="186" as="geometry" />
        </mxCell>
        <mxCell id="qz77AySCsfV83CSpT286-6" value="+ trackTicket(): void&lt;div style=&quot;font-size: 14px;&quot;&gt;+ addComment(): void&lt;br style=&quot;font-size: 14px;&quot;&gt;&lt;/div&gt;&lt;div style=&quot;font-size: 14px;&quot;&gt;+ sendReport(): void&lt;/div&gt;&lt;div style=&quot;font-size: 14px;&quot;&gt;+ manageData(): void&amp;nbsp;&lt;/div&gt;&lt;div style=&quot;font-size: 14px;&quot;&gt; + streamlineProcess():void&lt;/div&gt;&lt;div style=&quot;font-size: 14px;&quot;&gt;+ crossPromote(): void&amp;nbsp;&lt;/div&gt;&lt;div style=&quot;font-size: 14px;&quot;&gt; + engageAudience(): void&lt;/div&gt;&lt;div style=&quot;font-size: 14px;&quot;&gt;+ increaseAccessibility(): void&amp;nbsp;&lt;/div&gt;&lt;div style=&quot;font-size: 14px;&quot;&gt;&amp;nbsp;&amp;nbsp;&lt;br style=&quot;font-size: 14px;&quot;&gt;&lt;/div&gt;" style="text;html=1;align=left;verticalAlign=middle;resizable=0;points=[];autosize=1;strokeColor=none;fillColor=none;fontSize=14;" vertex="1" parent="qz77AySCsfV83CSpT286-5">
          <mxGeometry y="26" width="271" height="160" as="geometry" />
        </mxCell>
        <mxCell id="qz77AySCsfV83CSpT286-7" value="Customer" style="swimlane;fontStyle=1;childLayout=stackLayout;horizontal=1;startSize=26;fillColor=#f8cecc;horizontalStack=0;resizeParent=1;resizeParentMax=0;resizeLast=0;collapsible=1;marginBottom=0;whiteSpace=wrap;html=1;strokeColor=#b85450;fontSize=14;" vertex="1" parent="WIyWlLk6GJQsqaUBKTNV-1">
          <mxGeometry x="1360" y="1206" width="230" height="170" as="geometry" />
        </mxCell>
        <mxCell id="qz77AySCsfV83CSpT286-8" value="+ purchaseTicket():void&lt;div style=&quot;font-size: 14px;&quot;&gt;+ browseShows(): void&amp;nbsp;&lt;/div&gt;&lt;div style=&quot;font-size: 14px;&quot;&gt;+ accessShowInfo():&amp;nbsp;void&lt;/div&gt;&lt;div style=&quot;font-size: 14px;&quot;&gt;+ joinMembership():void&lt;br style=&quot;font-size: 14px;&quot;&gt;&lt;/div&gt;&lt;div style=&quot;font-size: 14px;&quot;&gt;+ getRecommendations():void&lt;br style=&quot;font-size: 14px;&quot;&gt;&lt;/div&gt;&lt;div style=&quot;font-size: 14px;&quot;&gt;+ vote(): void&lt;/div&gt;&lt;div style=&quot;font-size: 14px;&quot;&gt; + participateWorkshop():void&lt;/div&gt;&lt;div style=&quot;font-size: 14px;&quot;&gt;+ reportIssue(): void&amp;nbsp;&lt;br style=&quot;font-size: 14px;&quot;&gt;&lt;/div&gt;" style="text;strokeColor=none;fillColor=none;align=left;verticalAlign=top;spacingLeft=4;spacingRight=4;overflow=hidden;rotatable=0;points=[[0,0.5],[1,0.5]];portConstraint=eastwest;whiteSpace=wrap;html=1;fontSize=14;" vertex="1" parent="qz77AySCsfV83CSpT286-7">
          <mxGeometry y="26" width="230" height="144" as="geometry" />
        </mxCell>
        <mxCell id="qz77AySCsfV83CSpT286-9" value="Dashboard" style="swimlane;fontStyle=1;childLayout=stackLayout;horizontal=1;startSize=30;fillColor=#f8cecc;horizontalStack=0;resizeParent=1;resizeParentMax=0;resizeLast=0;collapsible=1;marginBottom=0;whiteSpace=wrap;html=1;strokeColor=#b85450;fontSize=14;" vertex="1" parent="WIyWlLk6GJQsqaUBKTNV-1">
          <mxGeometry x="110" y="1280" width="140" height="84" as="geometry" />
        </mxCell>
        <mxCell id="qz77AySCsfV83CSpT286-10" value="+ display(): void&lt;div style=&quot;font-size: 14px;&quot;&gt;+ loadPage(String)&amp;nbsp;&lt;br style=&quot;font-size: 14px;&quot;&gt;&lt;/div&gt;" style="text;strokeColor=none;fillColor=none;align=left;verticalAlign=top;spacingLeft=4;spacingRight=4;overflow=hidden;rotatable=0;points=[[0,0.5],[1,0.5]];portConstraint=eastwest;whiteSpace=wrap;html=1;fontSize=14;" vertex="1" parent="qz77AySCsfV83CSpT286-9">
          <mxGeometry y="30" width="140" height="54" as="geometry" />
        </mxCell>
        <mxCell id="qz77AySCsfV83CSpT286-11" value="Ticket" style="swimlane;fontStyle=1;align=center;verticalAlign=top;childLayout=stackLayout;horizontal=1;startSize=26;horizontalStack=0;resizeParent=1;resizeParentMax=0;resizeLast=0;collapsible=1;marginBottom=0;whiteSpace=wrap;html=1;fillColor=#f8cecc;strokeColor=#b85450;fontSize=14;" vertex="1" parent="WIyWlLk6GJQsqaUBKTNV-1">
          <mxGeometry x="70" y="1620" width="160" height="170" as="geometry" />
        </mxCell>
        <mxCell id="qz77AySCsfV83CSpT286-12" value="- ticketID: String&lt;div style=&quot;font-size: 14px;&quot;&gt;- showName: String&lt;/div&gt;&lt;div style=&quot;font-size: 14px;&quot;&gt;- seatNumber: String&lt;/div&gt;&lt;div style=&quot;font-size: 14px;&quot;&gt;- price: Double &amp;nbsp;&lt;br style=&quot;font-size: 14px;&quot;&gt;&lt;/div&gt;" style="text;strokeColor=none;fillColor=none;align=left;verticalAlign=top;spacingLeft=4;spacingRight=4;overflow=hidden;rotatable=0;points=[[0,0.5],[1,0.5]];portConstraint=eastwest;whiteSpace=wrap;html=1;fontSize=14;" vertex="1" parent="qz77AySCsfV83CSpT286-11">
          <mxGeometry y="26" width="160" height="84" as="geometry" />
        </mxCell>
        <mxCell id="qz77AySCsfV83CSpT286-13" value="" style="line;strokeWidth=1;fillColor=none;align=left;verticalAlign=middle;spacingTop=-1;spacingLeft=3;spacingRight=3;rotatable=0;labelPosition=right;points=[];portConstraint=eastwest;strokeColor=inherit;" vertex="1" parent="qz77AySCsfV83CSpT286-11">
          <mxGeometry y="110" width="160" height="8" as="geometry" />
        </mxCell>
        <mxCell id="qz77AySCsfV83CSpT286-14" value="+ purchase(): void&lt;div style=&quot;font-size: 14px;&quot;&gt;+ viewInfo(): void&amp;nbsp;&lt;br style=&quot;font-size: 14px;&quot;&gt;&lt;/div&gt;" style="text;strokeColor=none;fillColor=none;align=left;verticalAlign=top;spacingLeft=4;spacingRight=4;overflow=hidden;rotatable=0;points=[[0,0.5],[1,0.5]];portConstraint=eastwest;whiteSpace=wrap;html=1;fontSize=14;" vertex="1" parent="qz77AySCsfV83CSpT286-11">
          <mxGeometry y="118" width="160" height="52" as="geometry" />
        </mxCell>
        <mxCell id="qz77AySCsfV83CSpT286-15" value="Show" style="swimlane;fontStyle=1;align=center;verticalAlign=top;childLayout=stackLayout;horizontal=1;startSize=26;horizontalStack=0;resizeParent=1;resizeParentMax=0;resizeLast=0;collapsible=1;marginBottom=0;whiteSpace=wrap;html=1;fillColor=#f8cecc;strokeColor=#b85450;fontSize=14;" vertex="1" parent="WIyWlLk6GJQsqaUBKTNV-1">
          <mxGeometry x="90" y="1980" width="160" height="160" as="geometry" />
        </mxCell>
        <mxCell id="qz77AySCsfV83CSpT286-16" value="- showID: String&lt;div style=&quot;font-size: 14px;&quot;&gt;- name: String&lt;br style=&quot;font-size: 14px;&quot;&gt;&lt;/div&gt;&lt;div style=&quot;font-size: 14px;&quot;&gt;- description: String&lt;br style=&quot;font-size: 14px;&quot;&gt;&lt;/div&gt;&lt;div style=&quot;font-size: 14px;&quot;&gt;- schedule: String&amp;nbsp;&amp;nbsp;&lt;br style=&quot;font-size: 14px;&quot;&gt;&lt;/div&gt;" style="text;strokeColor=none;fillColor=none;align=left;verticalAlign=top;spacingLeft=4;spacingRight=4;overflow=hidden;rotatable=0;points=[[0,0.5],[1,0.5]];portConstraint=eastwest;whiteSpace=wrap;html=1;fontSize=14;" vertex="1" parent="qz77AySCsfV83CSpT286-15">
          <mxGeometry y="26" width="160" height="84" as="geometry" />
        </mxCell>
        <mxCell id="qz77AySCsfV83CSpT286-17" value="" style="line;strokeWidth=1;fillColor=none;align=left;verticalAlign=middle;spacingTop=-1;spacingLeft=3;spacingRight=3;rotatable=0;labelPosition=right;points=[];portConstraint=eastwest;strokeColor=inherit;" vertex="1" parent="qz77AySCsfV83CSpT286-15">
          <mxGeometry y="110" width="160" height="8" as="geometry" />
        </mxCell>
        <mxCell id="qz77AySCsfV83CSpT286-18" value="+ getShowInfo(): String" style="text;strokeColor=none;fillColor=none;align=left;verticalAlign=top;spacingLeft=4;spacingRight=4;overflow=hidden;rotatable=0;points=[[0,0.5],[1,0.5]];portConstraint=eastwest;whiteSpace=wrap;html=1;fontSize=14;" vertex="1" parent="qz77AySCsfV83CSpT286-15">
          <mxGeometry y="118" width="160" height="42" as="geometry" />
        </mxCell>
        <mxCell id="qz77AySCsfV83CSpT286-19" value="Membership" style="swimlane;fontStyle=1;align=center;verticalAlign=top;childLayout=stackLayout;horizontal=1;startSize=26;horizontalStack=0;resizeParent=1;resizeParentMax=0;resizeLast=0;collapsible=1;marginBottom=0;whiteSpace=wrap;html=1;fillColor=#f8cecc;strokeColor=#b85450;fontSize=14;" vertex="1" parent="WIyWlLk6GJQsqaUBKTNV-1">
          <mxGeometry x="610" y="1540" width="160" height="124" as="geometry" />
        </mxCell>
        <mxCell id="qz77AySCsfV83CSpT286-20" value="- membershipID: String&lt;div style=&quot;font-size: 14px;&quot;&gt;- type: String&lt;/div&gt;&lt;div style=&quot;font-size: 14px;&quot;&gt;- benefits: String&amp;nbsp;&lt;br style=&quot;font-size: 14px;&quot;&gt;&lt;/div&gt;" style="text;strokeColor=none;fillColor=none;align=left;verticalAlign=top;spacingLeft=4;spacingRight=4;overflow=hidden;rotatable=0;points=[[0,0.5],[1,0.5]];portConstraint=eastwest;whiteSpace=wrap;html=1;fontSize=14;" vertex="1" parent="qz77AySCsfV83CSpT286-19">
          <mxGeometry y="26" width="160" height="64" as="geometry" />
        </mxCell>
        <mxCell id="qz77AySCsfV83CSpT286-21" value="" style="line;strokeWidth=1;fillColor=none;align=left;verticalAlign=middle;spacingTop=-1;spacingLeft=3;spacingRight=3;rotatable=0;labelPosition=right;points=[];portConstraint=eastwest;strokeColor=inherit;" vertex="1" parent="qz77AySCsfV83CSpT286-19">
          <mxGeometry y="90" width="160" height="8" as="geometry" />
        </mxCell>
        <mxCell id="qz77AySCsfV83CSpT286-22" value="+ join(): void" style="text;strokeColor=none;fillColor=none;align=left;verticalAlign=top;spacingLeft=4;spacingRight=4;overflow=hidden;rotatable=0;points=[[0,0.5],[1,0.5]];portConstraint=eastwest;whiteSpace=wrap;html=1;fontSize=14;" vertex="1" parent="qz77AySCsfV83CSpT286-19">
          <mxGeometry y="98" width="160" height="26" as="geometry" />
        </mxCell>
        <mxCell id="qz77AySCsfV83CSpT286-23" value="Recommendation" style="swimlane;fontStyle=1;align=center;verticalAlign=top;childLayout=stackLayout;horizontal=1;startSize=26;horizontalStack=0;resizeParent=1;resizeParentMax=0;resizeLast=0;collapsible=1;marginBottom=0;whiteSpace=wrap;html=1;fillColor=#f8cecc;strokeColor=#b85450;fontSize=14;" vertex="1" parent="WIyWlLk6GJQsqaUBKTNV-1">
          <mxGeometry x="1051" y="1860" width="160" height="160" as="geometry" />
        </mxCell>
        <mxCell id="qz77AySCsfV83CSpT286-24" value="- recommendationID:string&lt;div style=&quot;font-size: 14px;&quot;&gt;&amp;nbsp;- showName: String&lt;/div&gt;&lt;div style=&quot;font-size: 14px;&quot;&gt;- reason: String &amp;nbsp;&lt;br style=&quot;font-size: 14px;&quot;&gt;&lt;/div&gt;" style="text;strokeColor=none;fillColor=none;align=left;verticalAlign=top;spacingLeft=4;spacingRight=4;overflow=hidden;rotatable=0;points=[[0,0.5],[1,0.5]];portConstraint=eastwest;whiteSpace=wrap;html=1;fontSize=14;" vertex="1" parent="qz77AySCsfV83CSpT286-23">
          <mxGeometry y="26" width="160" height="84" as="geometry" />
        </mxCell>
        <mxCell id="qz77AySCsfV83CSpT286-25" value="" style="line;strokeWidth=1;fillColor=none;align=left;verticalAlign=middle;spacingTop=-1;spacingLeft=3;spacingRight=3;rotatable=0;labelPosition=right;points=[];portConstraint=eastwest;strokeColor=inherit;" vertex="1" parent="qz77AySCsfV83CSpT286-23">
          <mxGeometry y="110" width="160" height="8" as="geometry" />
        </mxCell>
        <mxCell id="qz77AySCsfV83CSpT286-26" value="+getRecommendation()" style="text;strokeColor=none;fillColor=none;align=left;verticalAlign=top;spacingLeft=4;spacingRight=4;overflow=hidden;rotatable=0;points=[[0,0.5],[1,0.5]];portConstraint=eastwest;whiteSpace=wrap;html=1;fontSize=14;" vertex="1" parent="qz77AySCsfV83CSpT286-23">
          <mxGeometry y="118" width="160" height="42" as="geometry" />
        </mxCell>
        <mxCell id="qz77AySCsfV83CSpT286-27" value="Feedback" style="swimlane;fontStyle=1;align=center;verticalAlign=top;childLayout=stackLayout;horizontal=1;startSize=26;horizontalStack=0;resizeParent=1;resizeParentMax=0;resizeLast=0;collapsible=1;marginBottom=0;whiteSpace=wrap;html=1;fillColor=#f8cecc;strokeColor=#b85450;fontSize=14;" vertex="1" parent="WIyWlLk6GJQsqaUBKTNV-1">
          <mxGeometry x="350" y="1940" width="160" height="134" as="geometry" />
        </mxCell>
        <mxCell id="qz77AySCsfV83CSpT286-28" value="- feedbackID: String&lt;div style=&quot;font-size: 14px;&quot;&gt;- message: String&lt;/div&gt;&lt;div style=&quot;font-size: 14px;&quot;&gt;- customerID: String&amp;nbsp;&lt;br style=&quot;font-size: 14px;&quot;&gt;&lt;/div&gt;" style="text;strokeColor=none;fillColor=none;align=left;verticalAlign=top;spacingLeft=4;spacingRight=4;overflow=hidden;rotatable=0;points=[[0,0.5],[1,0.5]];portConstraint=eastwest;whiteSpace=wrap;html=1;fontSize=14;" vertex="1" parent="qz77AySCsfV83CSpT286-27">
          <mxGeometry y="26" width="160" height="74" as="geometry" />
        </mxCell>
        <mxCell id="qz77AySCsfV83CSpT286-29" value="" style="line;strokeWidth=1;fillColor=none;align=left;verticalAlign=middle;spacingTop=-1;spacingLeft=3;spacingRight=3;rotatable=0;labelPosition=right;points=[];portConstraint=eastwest;strokeColor=inherit;" vertex="1" parent="qz77AySCsfV83CSpT286-27">
          <mxGeometry y="100" width="160" height="8" as="geometry" />
        </mxCell>
        <mxCell id="qz77AySCsfV83CSpT286-30" value="+ submitFeedback(): void" style="text;strokeColor=none;fillColor=none;align=left;verticalAlign=top;spacingLeft=4;spacingRight=4;overflow=hidden;rotatable=0;points=[[0,0.5],[1,0.5]];portConstraint=eastwest;whiteSpace=wrap;html=1;fontSize=14;" vertex="1" parent="qz77AySCsfV83CSpT286-27">
          <mxGeometry y="108" width="160" height="26" as="geometry" />
        </mxCell>
        <mxCell id="qz77AySCsfV83CSpT286-31" style="edgeStyle=orthogonalEdgeStyle;rounded=0;orthogonalLoop=1;jettySize=auto;html=1;" edge="1" parent="WIyWlLk6GJQsqaUBKTNV-1" source="qz77AySCsfV83CSpT286-10" target="qz77AySCsfV83CSpT286-11">
          <mxGeometry relative="1" as="geometry" />
        </mxCell>
        <mxCell id="qz77AySCsfV83CSpT286-32" style="edgeStyle=orthogonalEdgeStyle;rounded=0;orthogonalLoop=1;jettySize=auto;html=1;" edge="1" parent="WIyWlLk6GJQsqaUBKTNV-1" source="qz77AySCsfV83CSpT286-10" target="qz77AySCsfV83CSpT286-19">
          <mxGeometry relative="1" as="geometry" />
        </mxCell>
        <mxCell id="qz77AySCsfV83CSpT286-33" style="edgeStyle=orthogonalEdgeStyle;rounded=0;orthogonalLoop=1;jettySize=auto;html=1;entryX=1;entryY=0.964;entryDx=0;entryDy=0;entryPerimeter=0;" edge="1" parent="WIyWlLk6GJQsqaUBKTNV-1" source="qz77AySCsfV83CSpT286-10" target="qz77AySCsfV83CSpT286-16">
          <mxGeometry relative="1" as="geometry">
            <Array as="points">
              <mxPoint x="70" y="1337" />
              <mxPoint x="70" y="1580" />
              <mxPoint x="270" y="1580" />
              <mxPoint x="270" y="1957" />
            </Array>
          </mxGeometry>
        </mxCell>
        <mxCell id="qz77AySCsfV83CSpT286-34" style="edgeStyle=orthogonalEdgeStyle;rounded=0;orthogonalLoop=1;jettySize=auto;html=1;" edge="1" parent="WIyWlLk6GJQsqaUBKTNV-1" source="qz77AySCsfV83CSpT286-10" target="qz77AySCsfV83CSpT286-27">
          <mxGeometry relative="1" as="geometry">
            <Array as="points">
              <mxPoint x="340" y="1453" />
              <mxPoint x="340" y="1703" />
              <mxPoint x="520" y="1703" />
              <mxPoint x="520" y="1800" />
              <mxPoint x="340" y="1800" />
            </Array>
          </mxGeometry>
        </mxCell>
        <mxCell id="qz77AySCsfV83CSpT286-35" style="edgeStyle=orthogonalEdgeStyle;rounded=0;orthogonalLoop=1;jettySize=auto;html=1;" edge="1" parent="WIyWlLk6GJQsqaUBKTNV-1" source="qz77AySCsfV83CSpT286-10" target="qz77AySCsfV83CSpT286-23">
          <mxGeometry relative="1" as="geometry">
            <Array as="points">
              <mxPoint x="560" y="1337" />
              <mxPoint x="560" y="1954" />
            </Array>
          </mxGeometry>
        </mxCell>
        <mxCell id="qz77AySCsfV83CSpT286-36" style="edgeStyle=orthogonalEdgeStyle;rounded=0;orthogonalLoop=1;jettySize=auto;html=1;entryX=1;entryY=-0.024;entryDx=0;entryDy=0;entryPerimeter=0;" edge="1" parent="WIyWlLk6GJQsqaUBKTNV-1" source="qz77AySCsfV83CSpT286-8" target="qz77AySCsfV83CSpT286-24">
          <mxGeometry relative="1" as="geometry" />
        </mxCell>
        <mxCell id="qz77AySCsfV83CSpT286-37" style="edgeStyle=orthogonalEdgeStyle;rounded=0;orthogonalLoop=1;jettySize=auto;html=1;entryX=1.031;entryY=-0.031;entryDx=0;entryDy=0;entryPerimeter=0;" edge="1" parent="WIyWlLk6GJQsqaUBKTNV-1" source="qz77AySCsfV83CSpT286-8" target="qz77AySCsfV83CSpT286-20">
          <mxGeometry relative="1" as="geometry" />
        </mxCell>
        <mxCell id="qz77AySCsfV83CSpT286-38" style="edgeStyle=orthogonalEdgeStyle;rounded=0;orthogonalLoop=1;jettySize=auto;html=1;entryX=0.927;entryY=-0.016;entryDx=0;entryDy=0;entryPerimeter=0;" edge="1" parent="WIyWlLk6GJQsqaUBKTNV-1" source="qz77AySCsfV83CSpT286-8" target="qz77AySCsfV83CSpT286-15">
          <mxGeometry relative="1" as="geometry">
            <Array as="points">
              <mxPoint x="238" y="1500" />
            </Array>
          </mxGeometry>
        </mxCell>
        <mxCell id="qz77AySCsfV83CSpT286-39" style="edgeStyle=orthogonalEdgeStyle;rounded=0;orthogonalLoop=1;jettySize=auto;html=1;entryX=1.02;entryY=0.24;entryDx=0;entryDy=0;entryPerimeter=0;" edge="1" parent="WIyWlLk6GJQsqaUBKTNV-1" source="qz77AySCsfV83CSpT286-7" target="qz77AySCsfV83CSpT286-28">
          <mxGeometry relative="1" as="geometry">
            <Array as="points">
              <mxPoint x="785" y="2060" />
              <mxPoint x="520" y="2060" />
              <mxPoint x="520" y="1944" />
            </Array>
          </mxGeometry>
        </mxCell>
        <mxCell id="qz77AySCsfV83CSpT286-40" style="edgeStyle=orthogonalEdgeStyle;rounded=0;orthogonalLoop=1;jettySize=auto;html=1;entryX=0.005;entryY=0.851;entryDx=0;entryDy=0;entryPerimeter=0;" edge="1" parent="WIyWlLk6GJQsqaUBKTNV-1" source="qz77AySCsfV83CSpT286-7" target="qz77AySCsfV83CSpT286-16">
          <mxGeometry relative="1" as="geometry">
            <Array as="points">
              <mxPoint x="785" y="1830" />
              <mxPoint x="70" y="1830" />
              <mxPoint x="70" y="1948" />
            </Array>
          </mxGeometry>
        </mxCell>
        <mxCell id="qz77AySCsfV83CSpT286-41" style="edgeStyle=orthogonalEdgeStyle;rounded=0;orthogonalLoop=1;jettySize=auto;html=1;" edge="1" parent="WIyWlLk6GJQsqaUBKTNV-1" source="qz77AySCsfV83CSpT286-6" target="qz77AySCsfV83CSpT286-23">
          <mxGeometry relative="1" as="geometry" />
        </mxCell>
        <mxCell id="qz77AySCsfV83CSpT286-42" value="" style="endArrow=block;startArrow=block;endFill=1;startFill=1;html=1;rounded=0;exitX=0.009;exitY=0.41;exitDx=0;exitDy=0;exitPerimeter=0;" edge="1" parent="WIyWlLk6GJQsqaUBKTNV-1" source="qz77AySCsfV83CSpT286-8">
          <mxGeometry width="160" relative="1" as="geometry">
            <mxPoint x="1222.333333333333" y="1430" as="sourcePoint" />
            <mxPoint x="1051" y="1290" as="targetPoint" />
            <Array as="points">
              <mxPoint x="1101" y="1290" />
            </Array>
          </mxGeometry>
        </mxCell>
        <mxCell id="qz77AySCsfV83CSpT286-43" style="edgeStyle=orthogonalEdgeStyle;rounded=0;orthogonalLoop=1;jettySize=auto;html=1;" edge="1" parent="WIyWlLk6GJQsqaUBKTNV-1" source="qz77AySCsfV83CSpT286-6" target="qz77AySCsfV83CSpT286-19">
          <mxGeometry relative="1" as="geometry">
            <Array as="points">
              <mxPoint x="710" y="1296" />
            </Array>
          </mxGeometry>
        </mxCell>
        <mxCell id="qz77AySCsfV83CSpT286-44" style="edgeStyle=orthogonalEdgeStyle;rounded=0;orthogonalLoop=1;jettySize=auto;html=1;" edge="1" parent="WIyWlLk6GJQsqaUBKTNV-1" source="qz77AySCsfV83CSpT286-6" target="qz77AySCsfV83CSpT286-27">
          <mxGeometry relative="1" as="geometry">
            <Array as="points">
              <mxPoint x="916" y="1400" />
              <mxPoint x="430" y="1400" />
            </Array>
          </mxGeometry>
        </mxCell>
        <mxCell id="qz77AySCsfV83CSpT286-45" style="edgeStyle=orthogonalEdgeStyle;rounded=0;orthogonalLoop=1;jettySize=auto;html=1;entryX=1;entryY=0.5;entryDx=0;entryDy=0;" edge="1" parent="WIyWlLk6GJQsqaUBKTNV-1" source="qz77AySCsfV83CSpT286-6" target="qz77AySCsfV83CSpT286-18">
          <mxGeometry relative="1" as="geometry">
            <Array as="points">
              <mxPoint x="850" y="2119" />
            </Array>
          </mxGeometry>
        </mxCell>
        <mxCell id="qz77AySCsfV83CSpT286-46" style="edgeStyle=orthogonalEdgeStyle;rounded=0;orthogonalLoop=1;jettySize=auto;html=1;entryX=0;entryY=0;entryDx=0;entryDy=0;exitX=0.5;exitY=0;exitDx=0;exitDy=0;" edge="1" parent="WIyWlLk6GJQsqaUBKTNV-1" source="qz77AySCsfV83CSpT286-5" target="qz77AySCsfV83CSpT286-11">
          <mxGeometry relative="1" as="geometry">
            <Array as="points">
              <mxPoint x="916" y="1060" />
              <mxPoint x="70" y="1060" />
            </Array>
          </mxGeometry>
        </mxCell>
      </root>
    </mxGraphModel>
  </diagram>
</mxfile>
